<svg width="22" height="22" viewBox="0 0 22 22" fill="none" xmlns="http://www.w3.org/2000/svg">
<path fill-rule="evenodd" clip-rule="evenodd" d="M14.4375 4.8125C14.4375 3.90082 14.0753 3.02648 13.4307 2.38182C12.786 1.73716 11.9117 1.375 11 1.375C10.0883 1.375 9.21398 1.73716 8.56932 2.38182C7.92466 3.02648 7.5625 3.90082 7.5625 4.8125V5.5H14.4375V4.8125ZM15.8125 4.8125V5.5H20.625V19.25C20.625 19.9793 20.3353 20.6788 19.8195 21.1945C19.3038 21.7103 18.6043 22 17.875 22H4.125C3.39565 22 2.69618 21.7103 2.18046 21.1945C1.66473 20.6788 1.375 19.9793 1.375 19.25V5.5H6.1875V4.8125C6.1875 3.53615 6.69453 2.31207 7.59705 1.40955C8.49957 0.50703 9.72365 0 11 0C12.2764 0 13.5004 0.50703 14.403 1.40955C15.3055 2.31207 15.8125 3.53615 15.8125 4.8125ZM14.9242 12.1742C15.0533 12.0452 15.1259 11.8701 15.1259 11.6875C15.1259 11.5049 15.0533 11.3298 14.9242 11.2008C14.7952 11.0717 14.6201 10.9991 14.4375 10.9991C14.2549 10.9991 14.0798 11.0717 13.9508 11.2008L10.3125 14.8404L8.73675 13.2633C8.67283 13.1993 8.59694 13.1486 8.51343 13.114C8.42991 13.0794 8.3404 13.0616 8.25 13.0616C8.1596 13.0616 8.07009 13.0794 7.98657 13.114C7.90306 13.1486 7.82717 13.1993 7.76325 13.2633C7.69933 13.3272 7.64862 13.4031 7.61403 13.4866C7.57944 13.5701 7.56163 13.6596 7.56163 13.75C7.56163 13.8404 7.57944 13.9299 7.61403 14.0134C7.64862 14.0969 7.69933 14.1728 7.76325 14.2367L9.82575 16.2992C9.88961 16.3633 9.96548 16.4141 10.049 16.4487C10.1325 16.4834 10.2221 16.5012 10.3125 16.5012C10.4029 16.5012 10.4925 16.4834 10.576 16.4487C10.6595 16.4141 10.7354 16.3633 10.7992 16.2992L14.9242 12.1742Z" fill="white"/>
</svg>
