<svg width="138" height="42" viewBox="0 0 138 42" fill="none" xmlns="http://www.w3.org/2000/svg">
<path d="M32.5 3.5H120C129.665 3.5 137.5 11.335 137.5 21C137.5 30.665 129.665 38.5 120 38.5H32.5V3.5Z" fill="white"/>
<path d="M32.5 3.5H120C129.665 3.5 137.5 11.335 137.5 21C137.5 30.665 129.665 38.5 120 38.5H32.5V3.5Z" stroke="#EA3335"/>
<path d="M57.5625 27V15.5781H58.8906V27H57.5625ZM65.8906 18.2812C66.9062 18.2812 67.6745 18.5312 68.1953 19.0312C68.7161 19.526 68.9766 20.3229 68.9766 21.4219V27H67.6953V21.5078C67.6953 20.7943 67.5312 20.2604 67.2031 19.9062C66.8802 19.5521 66.3828 19.375 65.7109 19.375C64.763 19.375 64.0964 19.6432 63.7109 20.1797C63.3255 20.7161 63.1328 21.4948 63.1328 22.5156V27H61.8359V18.4375H62.8828L63.0781 19.6719H63.1484C63.3307 19.3698 63.5625 19.1172 63.8438 18.9141C64.125 18.7057 64.4401 18.5495 64.7891 18.4453C65.138 18.3359 65.5052 18.2812 65.8906 18.2812ZM81.3438 24.6562C81.3438 25.2031 81.2057 25.6641 80.9297 26.0391C80.6589 26.4089 80.2682 26.6875 79.7578 26.875C79.2526 27.0625 78.6484 27.1562 77.9453 27.1562C77.3464 27.1562 76.8281 27.1094 76.3906 27.0156C75.9531 26.9219 75.5703 26.7891 75.2422 26.6172V25.4219C75.5911 25.5938 76.0078 25.75 76.4922 25.8906C76.9766 26.0312 77.4714 26.1016 77.9766 26.1016C78.7161 26.1016 79.2526 25.9818 79.5859 25.7422C79.9193 25.5026 80.0859 25.1771 80.0859 24.7656C80.0859 24.5312 80.0182 24.3255 79.8828 24.1484C79.7526 23.9661 79.5312 23.7917 79.2188 23.625C78.9062 23.4531 78.474 23.2656 77.9219 23.0625C77.375 22.8542 76.901 22.6484 76.5 22.4453C76.1042 22.237 75.7969 21.9844 75.5781 21.6875C75.3646 21.3906 75.2578 21.0052 75.2578 20.5312C75.2578 19.8073 75.5495 19.2526 76.1328 18.8672C76.7214 18.4766 77.4922 18.2812 78.4453 18.2812C78.9609 18.2812 79.4427 18.3333 79.8906 18.4375C80.3438 18.5365 80.7656 18.6719 81.1562 18.8438L80.7188 19.8828C80.3646 19.7318 79.987 19.6042 79.5859 19.5C79.1849 19.3958 78.776 19.3438 78.3594 19.3438C77.7604 19.3438 77.2995 19.4427 76.9766 19.6406C76.6589 19.8385 76.5 20.1094 76.5 20.4531C76.5 20.7188 76.5729 20.9375 76.7188 21.1094C76.8698 21.2812 77.1094 21.4427 77.4375 21.5938C77.7656 21.7448 78.1979 21.9219 78.7344 22.125C79.2708 22.3229 79.7344 22.5286 80.125 22.7422C80.5156 22.9505 80.8151 23.2057 81.0234 23.5078C81.237 23.8047 81.3438 24.1875 81.3438 24.6562ZM86.1953 26.0938C86.4089 26.0938 86.6276 26.0755 86.8516 26.0391C87.0755 26.0026 87.2578 25.9583 87.3984 25.9062V26.9141C87.2474 26.9818 87.0365 27.0391 86.7656 27.0859C86.5 27.1328 86.2396 27.1562 85.9844 27.1562C85.5312 27.1562 85.1198 27.0781 84.75 26.9219C84.3802 26.7604 84.0833 26.4896 83.8594 26.1094C83.6406 25.7292 83.5312 25.2031 83.5312 24.5312V19.4531H82.3125V18.8203L83.5391 18.3125L84.0547 16.4531H84.8359V18.4375H87.3438V19.4531H84.8359V24.4922C84.8359 25.0286 84.9583 25.4297 85.2031 25.6953C85.4531 25.9609 85.7839 26.0938 86.1953 26.0938ZM96.5156 22.7031C96.5156 23.4062 96.4245 24.0339 96.2422 24.5859C96.0599 25.138 95.7969 25.6042 95.4531 25.9844C95.1094 26.3646 94.6927 26.6562 94.2031 26.8594C93.7188 27.0573 93.1693 27.1562 92.5547 27.1562C91.9818 27.1562 91.4557 27.0573 90.9766 26.8594C90.5026 26.6562 90.0911 26.3646 89.7422 25.9844C89.3984 25.6042 89.1302 25.138 88.9375 24.5859C88.75 24.0339 88.6562 23.4062 88.6562 22.7031C88.6562 21.7656 88.8151 20.9688 89.1328 20.3125C89.4505 19.651 89.9036 19.1484 90.4922 18.8047C91.0859 18.4557 91.7917 18.2812 92.6094 18.2812C93.3906 18.2812 94.0729 18.4557 94.6562 18.8047C95.2448 19.1536 95.7005 19.6589 96.0234 20.3203C96.3516 20.9766 96.5156 21.7708 96.5156 22.7031ZM90 22.7031C90 23.3906 90.0911 23.987 90.2734 24.4922C90.4557 24.9974 90.737 25.388 91.1172 25.6641C91.4974 25.9401 91.987 26.0781 92.5859 26.0781C93.1797 26.0781 93.6667 25.9401 94.0469 25.6641C94.4323 25.388 94.7161 24.9974 94.8984 24.4922C95.0807 23.987 95.1719 23.3906 95.1719 22.7031C95.1719 22.0208 95.0807 21.4323 94.8984 20.9375C94.7161 20.4375 94.4349 20.0521 94.0547 19.7812C93.6745 19.5104 93.1823 19.375 92.5781 19.375C91.6875 19.375 91.0339 19.6693 90.6172 20.2578C90.2057 20.8464 90 21.6615 90 22.7031ZM102.188 27.1562C101.417 27.1562 100.737 26.9974 100.148 26.6797C99.5599 26.362 99.1016 25.8776 98.7734 25.2266C98.4453 24.5755 98.2812 23.7552 98.2812 22.7656C98.2812 21.7292 98.4531 20.8828 98.7969 20.2266C99.1458 19.5651 99.625 19.0755 100.234 18.7578C100.844 18.4401 101.536 18.2812 102.312 18.2812C102.74 18.2812 103.151 18.3255 103.547 18.4141C103.948 18.4974 104.276 18.6042 104.531 18.7344L104.141 19.8203C103.88 19.7161 103.578 19.6224 103.234 19.5391C102.896 19.4557 102.578 19.4141 102.281 19.4141C101.688 19.4141 101.193 19.5417 100.797 19.7969C100.406 20.0521 100.112 20.4271 99.9141 20.9219C99.7214 21.4167 99.625 22.026 99.625 22.75C99.625 23.4427 99.7188 24.0339 99.9062 24.5234C100.099 25.013 100.383 25.388 100.758 25.6484C101.138 25.9036 101.612 26.0312 102.18 26.0312C102.633 26.0312 103.042 25.9844 103.406 25.8906C103.771 25.7917 104.102 25.6771 104.398 25.5469V26.7031C104.112 26.849 103.792 26.9609 103.438 27.0391C103.089 27.1172 102.672 27.1562 102.188 27.1562ZM107.719 14.8438V21.1562C107.719 21.3646 107.711 21.6198 107.695 21.9219C107.68 22.2188 107.667 22.4818 107.656 22.7109H107.711C107.82 22.5755 107.979 22.375 108.188 22.1094C108.401 21.8438 108.581 21.6302 108.727 21.4688L111.57 18.4375H113.094L109.648 22.0938L113.344 27H111.781L108.758 22.9453L107.719 23.8984V27H106.43V14.8438H107.719Z" fill="#EA3335"/>
<circle cx="21" cy="21" r="21" fill="#EA3335"/>
<path fill-rule="evenodd" clip-rule="evenodd" d="M24.4375 14.8125C24.4375 13.9008 24.0753 13.0265 23.4307 12.3818C22.786 11.7372 21.9117 11.375 21 11.375C20.0883 11.375 19.214 11.7372 18.5693 12.3818C17.9247 13.0265 17.5625 13.9008 17.5625 14.8125V15.5H24.4375V14.8125ZM25.8125 14.8125V15.5H30.625V29.25C30.625 29.9793 30.3353 30.6788 29.8195 31.1945C29.3038 31.7103 28.6043 32 27.875 32H14.125C13.3957 32 12.6962 31.7103 12.1805 31.1945C11.6647 30.6788 11.375 29.9793 11.375 29.25V15.5H16.1875V14.8125C16.1875 13.5361 16.6945 12.3121 17.597 11.4095C18.4996 10.507 19.7236 10 21 10C22.2764 10 23.5004 10.507 24.403 11.4095C25.3055 12.3121 25.8125 13.5361 25.8125 14.8125ZM24.9242 22.1742C25.0533 22.0452 25.1259 21.8701 25.1259 21.6875C25.1259 21.5049 25.0533 21.3298 24.9242 21.2008C24.7952 21.0717 24.6201 20.9991 24.4375 20.9991C24.2549 20.9991 24.0798 21.0717 23.9508 21.2008L20.3125 24.8404L18.7368 23.2633C18.6728 23.1993 18.5969 23.1486 18.5134 23.114C18.4299 23.0794 18.3404 23.0616 18.25 23.0616C18.1596 23.0616 18.0701 23.0794 17.9866 23.114C17.9031 23.1486 17.8272 23.1993 17.7632 23.2633C17.6993 23.3272 17.6486 23.4031 17.614 23.4866C17.5794 23.5701 17.5616 23.6596 17.5616 23.75C17.5616 23.8404 17.5794 23.9299 17.614 24.0134C17.6486 24.0969 17.6993 24.1728 17.7632 24.2367L19.8258 26.2992C19.8896 26.3633 19.9655 26.4141 20.049 26.4487C20.1325 26.4834 20.2221 26.5012 20.3125 26.5012C20.4029 26.5012 20.4925 26.4834 20.576 26.4487C20.6595 26.4141 20.7354 26.3633 20.7992 26.2992L24.9242 22.1742Z" fill="white"/>
</svg>
