<svg width="64" height="64" viewBox="0 0 64 64" fill="none" xmlns="http://www.w3.org/2000/svg">
<g clip-path="url(#clip0_3892_1010)">
<path d="M44.5143 18.9814L35.5587 11.9261C35.1 11.5548 35.0126 10.8777 35.3839 10.4189C35.7553 9.96025 36.4324 9.87287 36.8911 10.2442L42.9416 15.0278L44.0556 7.40461C44.143 6.81485 44.6891 6.39984 45.2788 6.48721C45.8686 6.57458 46.2618 7.12065 46.1962 7.71041L44.5143 18.9814Z" fill="#25549E"/>
<path d="M54.1479 64.0218C53.995 64.0218 53.8421 64 53.6892 63.9126L43.3574 59.0635L52.7062 52.5324C53.1868 52.1829 53.8639 52.314 54.1916 52.7945C54.5192 53.2751 54.41 53.9522 53.9295 54.2799L47.6168 58.6921L54.5848 61.9467C55.1308 62.187 55.3492 62.8423 55.109 63.3665C54.9561 63.8034 54.5629 64.0218 54.1479 64.0218Z" fill="#25549E"/>
<path d="M11.0949 50.5009C10.527 50.5009 10.0465 50.0422 10.0246 49.4743L9.67513 41.7855L3.18777 45.9357C2.68538 46.2634 2.03008 46.1105 1.70244 45.6081C1.37479 45.1057 1.52769 44.4504 2.03008 44.1227L11.641 37.9849L12.1652 49.3869C12.1871 49.9767 11.7284 50.4791 11.1386 50.5009C11.1168 50.5009 11.0949 50.5009 11.0949 50.5009Z" fill="#25549E"/>
<path d="M55.983 59.6098H47.3331C46.7434 59.6098 46.2628 59.1292 46.2628 58.5395C46.2628 57.9497 46.7434 57.4692 47.3331 57.4692H55.983C57.4464 57.4692 58.7789 56.7265 59.5652 55.4814C60.3515 54.2364 60.4171 52.7074 59.7836 51.3968L44.6027 20.4453C44.3406 19.921 44.5591 19.2657 45.1051 19.0036C45.6294 18.7415 46.2847 18.9599 46.5468 19.506L61.7277 50.4576C62.7106 52.4453 62.5795 54.7388 61.4219 56.6173C60.2205 58.4958 58.1891 59.6098 55.983 59.6098Z" fill="#25549E"/>
<path d="M41.151 59.6092H10.0247C7.8186 59.6092 5.78716 58.4952 4.62948 56.6167C3.44996 54.7382 3.34076 52.4447 4.3237 50.457L8.84519 41.2174C9.10731 40.6932 9.74077 40.4747 10.2868 40.715C10.8111 40.9771 11.0295 41.6106 10.7892 42.1567L6.2677 51.3962C5.61241 52.7068 5.69979 54.2358 6.48613 55.4809C7.25064 56.7259 8.60494 57.4686 10.0684 57.4686H41.1947C41.7845 57.4686 42.265 57.9491 42.265 58.5389C42.2213 59.1287 41.7408 59.6092 41.151 59.6092Z" fill="#25549E"/>
<path d="M12.0119 38.2471C11.859 38.2471 11.6843 38.2034 11.5314 38.1379C11.0071 37.8758 10.7887 37.2423 11.029 36.6962L27.2802 3.56041C28.3505 1.35427 30.5566 0 33.0031 0C35.4495 0 37.6338 1.37611 38.7259 3.56041L44.3614 15.028C44.6235 15.5522 44.4051 16.2075 43.859 16.4696C43.3129 16.7317 42.6795 16.5133 42.4174 15.9672L36.7819 4.49966C36.0611 3.01433 34.6413 2.14061 33.0031 2.14061C31.3648 2.14061 29.945 3.01433 29.2242 4.49966L12.973 37.6355C12.7983 38.0287 12.4051 38.2471 12.0119 38.2471Z" fill="#25549E"/>
</g>
<defs>
<clipPath id="clip0_3892_1010">
<rect width="64" height="64" fill="white"/>
</clipPath>
</defs>
</svg>
